<svg width="574.964990234375px" height="138.830029296875px" xmlns="http://www.w3.org/2000/svg" viewBox="-37.48249511718751 5.584985351562494 574.964990234375 138.830029296875" style="background: rgba(0, 0, 0, 0);" preserveAspectRatio="xMidYMid"><defs><filter id="editing-hole" x="-100%" y="-100%" width="300%" height="300%"><feFlood flood-color="#000" result="black"></feFlood><feMorphology operator="dilate" radius="2" in="SourceGraphic" result="erode"></feMorphology><feGaussianBlur in="erode" stdDeviation="4" result="blur"></feGaussianBlur><feOffset in="blur" dx="2" dy="2" result="offset"></feOffset><feComposite operator="atop" in="offset" in2="black" result="merge"></feComposite><feComposite operator="in" in="merge" in2="SourceGraphic" result="inner-shadow"></feComposite></filter></defs><g filter="url(#editing-hole)"><g transform="translate(43.21499013900757, 96.40500068664551)"><path d="M32.77 1.02L32.77 1.02Q31.17 1.02 29.34-0.61L29.34-0.61L29.34-0.61Q27.52-2.24 25.98-5.06L25.98-5.06L19.14-17.47L13.82-17.47L13.63-7.94L13.63-7.94Q13.63-5.50 13.95-4.45L13.95-4.45L13.95-4.45Q14.27-3.39 15.17-3.04L15.17-3.04L15.17-3.04Q16.06-2.69 18.24-2.69L18.24-2.69L18.37-2.43L17.79 0.26L17.79 0.26Q17.02 0.19 14.72 0.13L14.72 0.13L14.72 0.13Q12.42 0.06 9.92 0.06L9.92 0.06L9.92 0.06Q7.68 0.06 5.95 0.13L5.95 0.13L5.95 0.13Q4.22 0.19 3.65 0.26L3.65 0.26L4.22-2.62L4.22-2.62Q6.27-2.88 7.30-3.33L7.30-3.33L7.30-3.33Q8.32-3.78 8.70-4.77L8.70-4.77L8.70-4.77Q9.09-5.76 9.09-7.68L9.09-7.68L9.15-34.56L9.15-34.56Q9.15-36.61 8.67-37.31L8.67-37.31L8.67-37.31Q8.19-38.02 6.78-38.02L6.78-38.02L6.78-38.02Q6.14-38.02 5.50-37.95L5.50-37.95L5.50-37.95Q4.86-37.89 4.61-37.89L4.61-37.89L4.48-38.14L4.93-40.96L4.93-40.96Q5.70-40.90 7.81-40.83L7.81-40.83L7.81-40.83Q9.92-40.77 12.03-40.77L12.03-40.77L12.03-40.77Q14.21-40.77 16.61-40.86L16.61-40.86L16.61-40.86Q19.01-40.96 19.90-41.02L19.90-41.02L19.90-41.02Q25.86-41.02 29.31-38.34L29.31-38.34L29.31-38.34Q32.77-35.65 32.77-30.98L32.77-30.98L32.77-30.98Q32.77-27.14 30.30-23.94L30.30-23.94L30.30-23.94Q27.84-20.74 23.36-18.69L23.36-18.69L30.40-7.55L30.40-7.55Q32.26-4.48 34.02-3.30L34.02-3.30L34.02-3.30Q35.78-2.11 38.34-2.11L38.34-2.11L38.59-1.86L38.21 0.32L32.77 1.02ZM20.54-20.42L20.54-20.42Q20.54-20.22 22.46-21.25L22.46-21.25L22.46-21.25Q24.38-22.27 25.92-24.38L25.92-24.38L25.92-24.38Q27.46-26.50 27.46-29.82L27.46-29.82L27.46-29.82Q27.46-38.27 15.74-38.27L15.74-38.27L15.74-38.27Q15.10-38.27 14.88-37.98L14.88-37.98L14.88-37.98Q14.66-37.70 14.59-36.80L14.59-36.80L14.59-36.80Q14.02-27.01 13.95-21.06L13.95-21.06L20.54-20.42ZM57.28 0.45L57.09 0.13L57.28-2.18L57.28-2.18Q59.97-2.37 60.90-2.75L60.90-2.75L60.90-2.75Q61.82-3.14 61.82-4.03L61.82-4.03L61.82-4.03Q61.82-5.06 61.38-6.21L61.38-6.21L59.84-11.14L59.84-11.14Q58.56-11.20 54.53-11.20L54.53-11.20L54.53-11.20Q52.67-11.20 49.02-10.82L49.02-10.82L47.23-6.08L47.23-6.08Q46.78-4.61 46.78-4.29L46.78-4.29L46.78-4.29Q46.78-3.26 47.49-2.82L47.49-2.82L47.49-2.82Q48.19-2.37 49.79-2.37L49.79-2.37L52.54-2.37L52.74-2.11L52.35 0.32L52.35 0.32Q51.71 0.26 49.44 0.13L49.44 0.13L49.44 0.13Q47.17 0 44.99 0L44.99 0L44.99 0Q42.94 0 41.31 0.06L41.31 0.06L41.31 0.06Q39.68 0.13 39.10 0.13L39.10 0.13L39.49-2.50L39.49-2.50Q40.90-2.69 41.73-3.49L41.73-3.49L41.73-3.49Q42.56-4.29 43.39-6.21L43.39-6.21L53.44-31.62L57.98-32.45L58.43-32.38L58.43-32.38Q58.43-32.13 61.34-22.27L61.34-22.27L61.34-22.27Q64.26-12.42 66.56-5.95L66.56-5.95L66.56-5.95Q67.20-4.10 68.19-3.36L68.19-3.36L68.19-3.36Q69.18-2.62 71.36-2.43L71.36-2.43L71.49-2.18L71.17 0.13L71.17 0.13Q70.53 0.13 68.80 0.06L68.80 0.06L68.80 0.06Q67.07 0 65.34 0L65.34 0L65.34 0Q62.72 0 60.35 0.19L60.35 0.19L60.35 0.19Q57.98 0.38 57.28 0.45L57.28 0.45ZM50.05-13.82L54.40-13.82L54.40-13.82Q56.64-13.82 59.07-14.08L59.07-14.08L55.17-26.50L54.72-26.50L50.05-13.82ZM75.14 0.58L75.46-2.05L75.46-2.05Q77.89-2.50 78.72-3.36L78.72-3.36L78.72-3.36Q79.55-4.22 79.55-6.34L79.55-6.34L79.62-26.69L79.62-26.69Q79.62-28.29 79.23-28.83L79.23-28.83L79.23-28.83Q78.85-29.38 77.70-29.38L77.70-29.38L75.58-29.31L75.46-29.57L75.78-32L75.78-32Q76.16-32 77.86-31.94L77.86-31.94L77.86-31.94Q79.55-31.87 82.30-31.87L82.30-31.87L82.30-31.87Q83.78-31.87 85.92-32.06L85.92-32.06L85.92-32.06Q88.06-32.26 88.70-32.32L88.70-32.32L88.45-29.70L88.45-29.70Q86.34-29.44 85.63-28.90L85.63-28.90L85.63-28.90Q84.93-28.35 84.80-26.88L84.80-26.88L84.80-26.88Q84.54-21.76 84.32-15.55L84.32-15.55L84.32-15.55Q84.10-9.34 84.10-5.95L84.10-5.95L84.10-5.95Q84.10-3.90 84.54-3.20L84.54-3.20L84.54-3.20Q84.99-2.50 86.34-2.50L86.34-2.50L86.34-2.50Q87.23-2.50 87.97-2.56L87.97-2.56L87.97-2.56Q88.70-2.62 88.96-2.69L88.96-2.69L89.09-2.43L88.64 0.13L88.64 0.13Q87.87 0.13 85.76 0.06L85.76 0.06L85.76 0.06Q83.65 0 81.54 0L81.54 0L81.54 0Q79.81 0 77.79 0.22L77.79 0.22L77.79 0.22Q75.78 0.45 75.14 0.58L75.14 0.58ZM121.73-8.70L121.66-27.20L121.66-27.20Q121.66-29.31 119.94-29.31L119.94-29.31L118.02-29.31L117.89-29.57L118.34-32.06L118.34-32.06Q118.91-32 120.51-31.94L120.51-31.94L120.51-31.94Q122.11-31.87 123.78-31.87L123.78-31.87L123.78-31.87Q125.18-31.87 126.94-32.03L126.94-32.03L126.94-32.03Q128.70-32.19 129.22-32.26L129.22-32.26L128.96-29.63L128.96-29.63Q127.10-29.38 126.30-28.64L126.30-28.64L126.30-28.64Q125.50-27.90 125.44-26.43L125.44-26.43L124.67 1.09L122.18 1.79L122.18 1.79Q116.10-7.10 109.89-15.62L109.89-15.62L109.89-15.62Q103.68-24.13 103.68-24L103.68-24L103.36-24L103.17-4.61L103.17-4.61Q103.17-3.39 103.55-2.94L103.55-2.94L103.55-2.94Q103.94-2.50 104.83-2.50L104.83-2.50L107.39-2.56L107.58-2.37L107.07 0.19L107.07 0.19Q106.50 0.13 104.80 0.06L104.80 0.06L104.80 0.06Q103.10 0 101.25 0L101.25 0L101.25 0Q99.78 0 98.11 0.16L98.11 0.16L98.11 0.16Q96.45 0.32 95.94 0.38L95.94 0.38L96.26-2.24L96.26-2.24Q97.86-2.43 98.62-3.17L98.62-3.17L98.62-3.17Q99.39-3.90 99.46-5.38L99.46-5.38L100.16-26.50L100.16-26.50Q100.16-28.10 99.23-28.70L99.23-28.70L99.23-28.70Q98.30-29.31 95.68-29.63L95.68-29.63L95.42-29.95L95.87-32.13L95.87-32.13Q96.38-32.06 97.82-31.97L97.82-31.97L97.82-31.97Q99.26-31.87 100.74-31.87L100.74-31.87L100.74-31.87Q102.14-31.87 103.23-31.94L103.23-31.94L103.23-31.94Q104.32-32 104.64-32.06L104.64-32.06L104.64-32.06Q109.82-24.45 115.62-16.51L115.62-16.51L115.62-16.51Q121.41-8.58 121.41-8.70L121.41-8.70L121.73-8.70ZM148.80 0.58L148.80 0.58Q147.97 0.45 145.44 0.22L145.44 0.22L145.44 0.22Q142.91 0 141.18 0L141.18 0L141.18 0Q139.52 0 137.54 0.22L137.54 0.22L137.54 0.22Q135.55 0.45 134.98 0.58L134.98 0.58L135.30-2.11L135.30-2.11Q137.60-2.50 138.43-3.39L138.43-3.39L138.43-3.39Q139.26-4.29 139.26-6.34L139.26-6.34L139.33-26.69L139.33-26.69Q139.33-28.29 138.94-28.83L138.94-28.83L138.94-28.83Q138.56-29.38 137.47-29.38L137.47-29.38L137.47-29.38Q136.90-29.38 136.38-29.31L136.38-29.31L136.38-29.31Q135.87-29.25 135.68-29.25L135.68-29.25L135.55-29.57L135.94-32L135.94-32Q136.58-32 138.27-31.94L138.27-31.94L138.27-31.94Q139.97-31.87 141.70-31.87L141.70-31.87L141.70-31.87Q144-31.87 146.43-31.97L146.43-31.97L146.43-31.97Q148.86-32.06 149.76-32.06L149.76-32.06L149.76-32.06Q154.88-32.06 158.78-30.21L158.78-30.21L158.78-30.21Q162.69-28.35 164.83-24.99L164.83-24.99L164.83-24.99Q166.98-21.63 166.98-17.15L166.98-17.15L166.98-17.15Q166.98-12.16 164.58-8.13L164.58-8.13L164.58-8.13Q162.18-4.10 158.02-1.76L158.02-1.76L158.02-1.76Q153.86 0.58 148.80 0.58L148.80 0.58ZM146.37-29.06L146.37-29.06Q145.34-29.06 144.99-28.83L144.99-28.83L144.99-28.83Q144.64-28.61 144.58-27.90L144.58-27.90L144.58-27.90Q143.81-9.92 143.81-6.78L143.81-6.78L143.81-6.78Q143.81-5.06 144.32-4.13L144.32-4.13L144.32-4.13Q144.83-3.20 146.11-2.85L146.11-2.85L146.11-2.85Q147.39-2.50 149.89-2.50L149.89-2.50L149.89-2.50Q155.26-2.50 158.30-6.02L158.30-6.02L158.30-6.02Q161.34-9.54 161.34-15.87L161.34-15.87L161.34-15.87Q161.34-22.34 157.50-25.70L157.50-25.70L157.50-25.70Q153.66-29.06 146.37-29.06L146.37-29.06ZM197.18 0.77L197.18 0.77Q195.78 0.77 194.30-0.48L194.30-0.48L194.30-0.48Q192.83-1.73 191.62-3.90L191.62-3.90L186.24-13.31L182.08-13.31L181.95-6.46L181.95-6.46Q181.95-4.61 182.21-3.81L182.21-3.81L182.21-3.81Q182.46-3.01 183.20-2.75L183.20-2.75L183.20-2.75Q183.94-2.50 185.73-2.43L185.73-2.43L185.86-2.24L185.34 0.19L185.34 0.19Q184.58 0.13 182.56 0.10L182.56 0.10L182.56 0.10Q180.54 0.06 178.50 0.06L178.50 0.06L178.50 0.06Q176.51 0.06 175.04 0.13L175.04 0.13L175.04 0.13Q173.57 0.19 173.06 0.26L173.06 0.26L173.50-2.37L173.50-2.37Q175.87-2.69 176.64-3.46L176.64-3.46L176.64-3.46Q177.41-4.22 177.41-6.34L177.41-6.34L177.47-26.75L177.47-26.75Q177.47-28.29 177.09-28.83L177.09-28.83L177.09-28.83Q176.70-29.38 175.62-29.38L175.62-29.38L173.82-29.31L173.63-29.57L174.02-32L174.02-32Q174.66-32 176.45-31.94L176.45-31.94L176.45-31.94Q178.24-31.87 180.03-31.87L180.03-31.87L180.03-31.87Q181.89-31.87 184-31.97L184-31.97L184-31.97Q186.11-32.06 186.88-32.06L186.88-32.06L186.88-32.06Q192.06-32.06 195.01-29.92L195.01-29.92L195.01-29.92Q197.95-27.78 197.95-24L197.95-24L197.95-24Q197.95-21.06 195.97-18.56L195.97-18.56L195.97-18.56Q193.98-16.06 190.40-14.46L190.40-14.46L195.84-6.27L195.84-6.27Q197.38-3.97 198.78-3.01L198.78-3.01L198.78-3.01Q200.19-2.05 202.18-2.05L202.18-2.05L202.43-1.73L202.11 0.26L197.18 0.77ZM187.39-16.13L187.39-16.13Q188.61-16.64 189.54-17.12L189.54-17.12L189.54-17.12Q190.46-17.60 191.62-19.14L191.62-19.14L191.62-19.14Q192.77-20.67 192.77-23.10L192.77-23.10L192.77-23.10Q192.77-29.31 183.62-29.31L183.62-29.31L183.62-29.31Q183.10-29.31 182.91-29.09L182.91-29.09L182.91-29.09Q182.72-28.86 182.72-28.16L182.72-28.16L182.72-28.16Q182.21-20.35 182.21-16.64L182.21-16.64L187.39-16.13ZM220.80 0.58L220.80 0.58Q216.45 0.58 213.09-1.34L213.09-1.34L213.09-1.34Q209.73-3.26 207.90-6.78L207.90-6.78L207.90-6.78Q206.08-10.30 206.08-14.91L206.08-14.91L206.08-14.91Q206.08-19.90 208.35-23.90L208.35-23.90L208.35-23.90Q210.62-27.90 214.56-30.18L214.56-30.18L214.56-30.18Q218.50-32.45 223.36-32.45L223.36-32.45L223.36-32.45Q227.78-32.45 231.17-30.53L231.17-30.53L231.17-30.53Q234.56-28.61 236.42-25.12L236.42-25.12L236.42-25.12Q238.27-21.63 238.27-17.02L238.27-17.02L238.27-17.02Q238.27-12.03 236-8.03L236-8.03L236-8.03Q233.73-4.03 229.73-1.73L229.73-1.73L229.73-1.73Q225.73 0.58 220.80 0.58L220.80 0.58ZM222.34-2.50L222.34-2.50Q227.01-2.50 229.89-5.86L229.89-5.86L229.89-5.86Q232.77-9.22 232.77-14.78L232.77-14.78L232.77-14.78Q232.77-19.01 231.39-22.21L231.39-22.21L231.39-22.21Q230.02-25.41 227.49-27.14L227.49-27.14L227.49-27.14Q224.96-28.86 221.63-28.86L221.63-28.86L221.63-28.86Q217.09-28.86 214.30-25.54L214.30-25.54L214.30-25.54Q211.52-22.21 211.52-16.64L211.52-16.64L211.52-16.64Q211.52-12.42 212.86-9.22L212.86-9.22L212.86-9.22Q214.21-6.02 216.67-4.26L216.67-4.26L216.67-4.26Q219.14-2.50 222.34-2.50L222.34-2.50ZM244.61 0.38L244.99-2.24L244.99-2.24Q247.23-2.62 247.97-3.42L247.97-3.42L247.97-3.42Q248.70-4.22 248.70-6.34L248.70-6.34L248.77-26.69L248.77-26.69Q248.77-28.29 248.38-28.83L248.38-28.83L248.38-28.83Q248-29.38 246.91-29.38L246.91-29.38L245.12-29.31L244.93-29.57L245.31-32L245.31-32Q245.63-32 247.20-31.94L247.20-31.94L247.20-31.94Q248.77-31.87 251.33-31.87L251.33-31.87L251.33-31.87Q253.06-31.87 255.23-31.97L255.23-31.97L255.23-31.97Q257.41-32.06 258.30-32.06L258.30-32.06L258.30-32.06Q264.06-32.06 266.98-29.63L266.98-29.63L266.98-29.63Q269.89-27.20 269.89-22.98L269.89-22.98L269.89-22.98Q269.89-20.16 268.16-17.60L268.16-17.60L268.16-17.60Q266.43-15.04 263.65-13.47L263.65-13.47L263.65-13.47Q260.86-11.90 257.73-11.90L257.73-11.90L253.31-11.90L253.25-7.42L253.25-7.42Q253.25-5.18 253.41-4.19L253.41-4.19L253.41-4.19Q253.57-3.20 254.02-2.88L254.02-2.88L254.02-2.88Q254.46-2.56 255.55-2.56L255.55-2.56L255.55-2.56Q256.38-2.56 257.22-2.62L257.22-2.62L257.22-2.62Q258.05-2.69 258.30-2.69L258.30-2.69L258.43-2.43L257.92 0.13L257.92 0.13Q257.34 0.13 255.81 0.06L255.81 0.06L255.81 0.06Q254.27 0 252.67 0L252.67 0L252.67 0Q250.56 0 247.62 0.13L247.62 0.13L247.62 0.13Q244.67 0.26 244.61 0.38L244.61 0.38ZM258.75-14.66L258.75-14.66Q264.70-15.62 264.70-22.08L264.70-22.08L264.70-22.08Q264.70-25.66 262.46-27.36L262.46-27.36L262.46-27.36Q260.22-29.06 255.36-29.06L255.36-29.06L255.36-29.06Q254.46-29.06 254.27-28.96L254.27-28.96L254.27-28.96Q254.08-28.86 254.02-28.29L254.02-28.29L254.02-28.29Q253.50-20.16 253.44-15.36L253.44-15.36L258.75-14.66ZM295.23 0L295.23 0Q293.25 0 290.94 0.32L290.94 0.32L290.94 0.32Q288.64 0.64 287.94 0.77L287.94 0.77L288.32-2.18L288.32-2.18Q291.26-2.75 292.29-3.87L292.29-3.87L292.29-3.87Q293.31-4.99 293.31-7.68L293.31-7.68L293.38-34.56L293.38-34.56Q293.38-36.61 292.90-37.31L292.90-37.31L292.90-37.31Q292.42-38.02 291.01-38.02L291.01-38.02L291.01-38.02Q290.37-38.02 289.73-37.95L289.73-37.95L289.73-37.95Q289.09-37.89 288.83-37.89L288.83-37.89L288.70-38.14L289.15-40.96L289.15-40.96Q289.92-40.90 292.03-40.83L292.03-40.83L292.03-40.83Q294.14-40.77 296.26-40.77L296.26-40.77L296.26-40.77Q298.43-40.77 300.70-40.86L300.70-40.86L300.70-40.86Q302.98-40.96 303.81-41.02L303.81-41.02L303.81-41.02Q309.89-41.02 313.15-38.50L313.15-38.50L313.15-38.50Q316.42-35.97 316.42-31.30L316.42-31.30L316.42-31.30Q316.42-28.10 314.46-25.54L314.46-25.54L314.46-25.54Q312.51-22.98 308.99-21.44L308.99-21.44L308.99-21.44Q313.66-20.42 316.29-17.86L316.29-17.86L316.29-17.86Q318.91-15.30 318.91-11.71L318.91-11.71L318.91-11.71Q318.91-8.45 316.83-5.60L316.83-5.60L316.83-5.60Q314.75-2.75 311.30-1.06L311.30-1.06L311.30-1.06Q307.84 0.64 303.87 0.64L303.87 0.64L303.87 0.64Q302.14 0.64 299.90 0.32L299.90 0.32L299.90 0.32Q296.26 0 295.23 0L295.23 0ZM298.24-22.46L298.24-22.46Q299.20-22.40 301.47-22.21L301.47-22.21L301.47-22.21Q303.74-22.02 305.22-21.95L305.22-21.95L305.22-21.95Q305.22-21.76 306.88-22.62L306.88-22.62L306.88-22.62Q308.54-23.49 309.89-25.31L309.89-25.31L309.89-25.31Q311.23-27.14 311.23-30.21L311.23-30.21L311.23-30.21Q311.23-34.30 308.48-36.29L308.48-36.29L308.48-36.29Q305.73-38.27 299.97-38.27L299.97-38.27L299.97-38.27Q299.33-38.27 299.10-37.98L299.10-37.98L299.10-37.98Q298.88-37.70 298.82-36.80L298.82-36.80L298.82-36.80Q298.43-30.66 298.24-22.46L298.24-22.46ZM298.11-19.07L297.86-7.10L297.86-7.10Q297.86-4.67 299.52-3.65L299.52-3.65L299.52-3.65Q301.18-2.62 305.15-2.62L305.15-2.62L305.15-2.62Q308.99-2.62 311.20-4.77L311.20-4.77L311.20-4.77Q313.41-6.91 313.41-10.56L313.41-10.56L313.41-10.56Q313.41-14.02 311.23-16.22L311.23-16.22L311.23-16.22Q309.06-18.43 304.77-19.20L304.77-19.20L298.11-19.07ZM339.78 0.58L339.78 0.58Q335.42 0.58 332.06-1.34L332.06-1.34L332.06-1.34Q328.70-3.26 326.88-6.78L326.88-6.78L326.88-6.78Q325.06-10.30 325.06-14.91L325.06-14.91L325.06-14.91Q325.06-19.90 327.33-23.90L327.33-23.90L327.33-23.90Q329.60-27.90 333.54-30.18L333.54-30.18L333.54-30.18Q337.47-32.45 342.34-32.45L342.34-32.45L342.34-32.45Q346.75-32.45 350.14-30.53L350.14-30.53L350.14-30.53Q353.54-28.61 355.39-25.12L355.39-25.12L355.39-25.12Q357.25-21.63 357.25-17.02L357.25-17.02L357.25-17.02Q357.25-12.03 354.98-8.03L354.98-8.03L354.98-8.03Q352.70-4.03 348.70-1.73L348.70-1.73L348.70-1.73Q344.70 0.58 339.78 0.58L339.78 0.58ZM341.31-2.50L341.31-2.50Q345.98-2.50 348.86-5.86L348.86-5.86L348.86-5.86Q351.74-9.22 351.74-14.78L351.74-14.78L351.74-14.78Q351.74-19.01 350.37-22.21L350.37-22.21L350.37-22.21Q348.99-25.41 346.46-27.14L346.46-27.14L346.46-27.14Q343.94-28.86 340.61-28.86L340.61-28.86L340.61-28.86Q336.06-28.86 333.28-25.54L333.28-25.54L333.28-25.54Q330.50-22.21 330.50-16.64L330.50-16.64L330.50-16.64Q330.50-12.42 331.84-9.22L331.84-9.22L331.84-9.22Q333.18-6.02 335.65-4.26L335.65-4.26L335.65-4.26Q338.11-2.50 341.31-2.50L341.31-2.50ZM373.25 0.83L373.25 0.83Q372.48-1.79 369.89-10.40L369.89-10.40L369.89-10.40Q367.30-19.01 364.80-26.43L364.80-26.43L364.80-26.43Q364.29-27.90 363.23-28.61L363.23-28.61L363.23-28.61Q362.18-29.31 360.32-29.38L360.32-29.38L360.32-29.38Q360.32-29.44 360.19-29.57L360.19-29.57L360.58-32L360.58-32Q361.28-32 363.07-31.94L363.07-31.94L363.07-31.94Q364.86-31.87 366.59-31.87L366.59-31.87L366.59-31.87Q368.96-31.87 371.36-32.10L371.36-32.10L371.36-32.10Q373.76-32.32 374.46-32.38L374.46-32.38L374.66-32L374.40-29.70L374.40-29.70Q371.71-29.50 370.88-29.12L370.88-29.12L370.88-29.12Q370.05-28.74 370.05-27.71L370.05-27.71L370.05-27.71Q370.05-26.50 372.58-17.54L372.58-17.54L372.58-17.54Q375.10-8.58 376.06-5.38L376.06-5.38L376.45-5.38L376.45-5.38Q378.05-9.28 380.74-16.70L380.74-16.70L380.74-16.70Q381.76-19.58 383.49-24.19L383.49-24.19L383.49-24.19Q383.49-24.19 382.66-26.69L382.66-26.69L382.66-26.69Q382.21-28.10 381.15-28.67L381.15-28.67L381.15-28.67Q380.10-29.25 378.11-29.38L378.11-29.38L377.98-29.57L378.37-32L378.37-32Q379.07-32 380.96-31.94L380.96-31.94L380.96-31.94Q382.85-31.87 384.64-31.87L384.64-31.87L384.64-31.87Q386.69-31.87 389.18-32.10L389.18-32.10L389.18-32.10Q391.68-32.32 392.45-32.38L392.45-32.38L392.64-32L392.45-29.70L392.45-29.70Q389.76-29.50 388.90-29.12L388.90-29.12L388.90-29.12Q388.03-28.74 388.03-27.71L388.03-27.71L388.03-27.71Q388.03-26.62 390.56-17.63L390.56-17.63L390.56-17.63Q393.09-8.64 394.05-5.38L394.05-5.38L394.50-5.38L394.50-5.38Q396.54-10.37 399.49-18.59L399.49-18.59L399.49-18.59Q402.43-26.82 402.43-27.84L402.43-27.84L402.43-27.84Q402.43-28.74 401.70-29.12L401.70-29.12L401.70-29.12Q400.96-29.50 399.10-29.50L399.10-29.50L396.67-29.50L396.54-29.76L396.93-32.19L396.93-32.19Q397.63-32.13 399.90-32L399.90-32L399.90-32Q402.18-31.87 404.22-31.87L404.22-31.87L404.22-31.87Q406.14-31.87 407.78-31.94L407.78-31.94L407.78-31.94Q409.41-32 409.92-32L409.92-32L409.54-29.38L409.54-29.38Q408.06-29.25 407.46-28.80L407.46-28.80L407.46-28.80Q406.85-28.35 406.34-26.88L406.34-26.88L395.78-0.26L391.23 0.83L391.23 0.83Q391.10 0.06 389.22-6.27L389.22-6.27L389.22-6.27Q387.33-12.61 385.15-19.26L385.15-19.26L384.83-19.26L377.86-0.26L373.25 0.83Z" fill="#ccc"></path></g></g><style>text {
  font-size: 64px;
  font-family: Arial Black;
  dominant-baseline: central;
  text-anchor: middle;
}</style></svg>